inDegrees=no
num_controls=7
num_derivatives=13
num_iterations=32
num_multipliers=7
num_parameters=0
num_slacks=7
num_states=26
objective=0.426629
objective_accelerations=0.057840
objective_balance=0.001134
objective_effort=0.015492
objective_height=0.346114
objective_ligament=0.006048
solver_duration=487.530072
status=Solve_Succeeded
success=true
DataType=double
version=3
OpenSimVersion=4.5
endheader
time	/jointset/ground_pelvis/pelvis_tilt/value	/jointset/ground_pelvis/pelvis_tx/value	/jointset/ground_pelvis/pelvis_ty/value	/jointset/hip_l/hip_flexion_l/value	/jointset/hip_l/hip_adduction_l/value	/jointset/hip_l/hip_rotation_l/value	/jointset/back/lumbar_extension/value	/jointset/patellofemoral_l/patellar_flexion_l/value	/jointset/knee_l/knee_flexion_l/value	/jointset/knee_l/knee_adduction_l/value	/jointset/knee_l/knee_rotation_l/value	/jointset/ankle_l/ankle_angle_l/value	/jointset/subtalar_l/subtalar_angle_l/value	/jointset/ground_pelvis/pelvis_tilt/speed	/jointset/ground_pelvis/pelvis_tx/speed	/jointset/ground_pelvis/pelvis_ty/speed	/jointset/hip_l/hip_flexion_l/speed	/jointset/hip_l/hip_adduction_l/speed	/jointset/hip_l/hip_rotation_l/speed	/jointset/back/lumbar_extension/speed	/jointset/patellofemoral_l/patellar_flexion_l/speed	/jointset/knee_l/knee_flexion_l/speed	/jointset/knee_l/knee_adduction_l/speed	/jointset/knee_l/knee_rotation_l/speed	/jointset/ankle_l/ankle_angle_l/speed	/jointset/subtalar_l/subtalar_angle_l/speed	/forceset/tau_hip_flexion_l	/forceset/tau_hip_adduction_l	/forceset/tau_hip_rotation_l	/forceset/tau_knee_flexion_l	/forceset/tau_ankle_angle_l	/forceset/tau_subtalar_angle_l	/forceset/tau_lumbar_extension	lambda_cid13_p0	lambda_cid13_p1	lambda_cid13_p2	lambda_cid13_p3	lambda_cid13_p4	lambda_cid13_p5	lambda_cid14_p0	/jointset/ground_pelvis/pelvis_tilt/accel	/jointset/ground_pelvis/pelvis_tx/accel	/jointset/ground_pelvis/pelvis_ty/accel	/jointset/hip_l/hip_flexion_l/accel	/jointset/hip_l/hip_adduction_l/accel	/jointset/hip_l/hip_rotation_l/accel	/jointset/back/lumbar_extension/accel	/jointset/patellofemoral_l/patellar_flexion_l/accel	/jointset/knee_l/knee_flexion_l/accel	/jointset/knee_l/knee_adduction_l/accel	/jointset/knee_l/knee_rotation_l/accel	/jointset/ankle_l/ankle_angle_l/accel	/jointset/subtalar_l/subtalar_angle_l/accel	gamma_cid13_p0	gamma_cid13_p1	gamma_cid13_p2	gamma_cid13_p3	gamma_cid13_p4	gamma_cid13_p5	gamma_cid14_p0
1.5	-0.3450787686911249	0.06031498479321853	0.7917192216013249	0.9964855989484841	-0.3633425721264827	-0.03837172235306593	-0.3266569914241259	0.8187098601548978	0.8187098601548876	-0.05230801513686996	-0.1673226743398989	0.2849651002782613	0.1520598994962895	0.4855405723635329	0.2651582916996077	0.4886846805878515	-2.294712260148782	-0.001946925385624364	-0.5911960966996875	0.6063157124524451	-2.196231423396092	-2.19623142339607	-0.2952814862332571	0.06565366365485947	-0.559296820767494	-0.2224576443942055	-0.1350672306283886	0.08282295229567721	0.004521520733749253	-0.1213539118701904	-0.04535064142482614	-0.02043069730641855	0.1273035033969983	-40.66118322725415	16.94495630618951	-4.070399186703716	1.592800595609367	-429.4543870569032	-19.79688433096637	-10.16156443307444	0.5654436220657149	0.4653379006421297	-0.764786617816386	-1.151350100985868	0.3271723187730011	-0.3791962618960263	1.559827924572188	-1.199598040349789	-1.19959804034979	-0.1118146504012132	0.4341433875911389	-0.6680596480973665	0.4063897429332703	3.032853214446137e-07	2.28880913001783e-06	-4.076276757318781e-06	1.195151875579493e-07	9.57919921150827e-07	2.355735228871463e-06	6.610400099532043e-07
1.51	-0.3401952467410501	0.06298949165439907	0.7965668787553359	0.9734826833499391	-0.3633471736285316	-0.04430438761117185	-0.3205174140036331	0.7966898206269875	0.7966898206270004	-0.05526785377404785	-0.1666483284942088	0.2793390599593804	0.1498537407126661	0.4910796106884132	0.2697001529480325	0.4807432012308523	-2.305559497221963	0.001028510773328483	-0.5951853717881622	0.621516164355095	-2.207477190351463	-2.207477190351433	-0.2967363392134697	0.06928265804130046	-0.5658184241845572	-0.2187450650818648	-0.1308492520817463	0.08126870956128709	0.00559599773562152	-0.1182349102474157	-0.04548481198035585	-0.02144928180486148	0.1237782360261353	-40.5765833584484	17.15680042620497	-3.85777609553147	1.855252629969134	-426.3408548902941	-19.79475165566539	-11.05769582392669	0.5355280722037492	0.4422883686013183	-0.8242737527541787	-1.004678912039456	0.2827211863445259	-0.385557648109217	1.487612729485625	-1.042274232300769	-1.042274232299667	-0.1691579024767134	0.3372458218353512	-0.6301031657808723	0.3574268149612027	1.691208766589294e-07	3.921085562326937e-06	-2.09436401395278e-06	4.276257510643412e-07	6.134177218937638e-07	2.590892290449375e-06	5.613003055594114e-07
1.52	-0.3352588555808144	0.06570815275439532	0.8013320320841543	0.9503806417003591	-0.3633220223846076	-0.05027229852331958	-0.3142283402828364	0.7745662817877137	0.7745662817876895	-0.05824360839736538	-0.1659356990330228	0.2736506251108726	0.1476854546800825	0.4961144143934499	0.2739891394627498	0.4721839155493966	-2.314537470357373	0.004003623807793519	-0.5982452275080673	0.6362149725127123	-2.216931285673632	-2.216931285673593	-0.2984646834194885	0.07331038673432443	-0.5717757266924208	-0.214883094186454	-0.126631273535091	0.0797144668269229	0.006670474736728187	-0.1151159086246082	-0.04561898253586399	-0.02246786630324604	0.12025296865528	-40.49010014195897	17.36540226299089	-3.641307736820556	2.100173498532421	-423.192152023313	-19.83777649008579	-11.95079239291497	0.4645966980970771	0.4147629539006701	-0.8883478827076667	-0.7774973134317064	0.3271076938754884	-0.1933123881820241	1.459499175565697	-0.8412637137092324	-0.8412637137092328	-0.1665128955624795	0.5138902489077807	-0.5551994662574462	0.4362680595473102	1.024279570118835e-07	4.802572611804732e-06	-1.146143063482956e-06	5.864696238480046e-07	4.576090190646927e-07	2.761551445658766e-06	5.197354489516564e-07
1.53	-0.3302746233746771	0.0684684035252717	0.8060086069078892	0.9271980746012332	-0.3632671875125961	-0.05626677422901355	-0.3077950209098181	0.7523571551120911	0.7523571551120471	-0.06123774365246235	-0.1651812350115931	0.2679054677659152	0.1455564716859123	0.5006416464413612	0.2780135031144325	0.4630367167857317	-2.321654030755397	0.006966660218957203	-0.6005673026596724	0.6503488406791629	-2.224583980904313	-2.22458398090428	-0.3003509842972783	0.07760282715499371	-0.5771543639956263	-0.2108810483122985	-0.1223320498848988	0.07793856582746238	0.007681743889754342	-0.1123369365819937	-0.04550601275476764	-0.02356248562143223	0.1166640094832949	-40.34716779940014	17.61173495059088	-3.447524449053375	2.323674131252724	-420.3056917831745	-19.88634671992127	-12.83981764469563	0.4332532059490433	0.389263701147324	-0.9419504937936684	-0.6304202156364952	0.2811207603318968	-0.2387301306690004	1.375321425473006	-0.6808723096112476	-0.680872309612142	-0.1972918707843333	0.3898147410211525	-0.5138041376495104	0.386428785542492	1.074235328246401e-07	4.886345942024263e-06	-1.29621964296531e-06	5.867176377387705e-07	5.022871561903614e-07	2.863681575351603e-06	5.399813681165656e-07
1.54	-0.3252478254984858	0.07126749605873377	0.8105909008198678	0.9039540049356042	-0.363182678447345	-0.0622818856966394	-0.3012233646974753	0.7300807815077694	0.7300807815077462	-0.06425026255364091	-0.1643832678255204	0.262109602392869	0.143468360337323	0.5046275484016919	0.2817574919798863	0.453327733198195	-2.32683798365938	0.009938462453925833	-0.6023723798920504	0.6638823403771419	-2.230380671409537	-2.230380671409509	-0.3021414126509508	0.08201101967064674	-0.5819173323107267	-0.2067087650704317	-0.1180328262347301	0.07616266482796209	0.008693013043050039	-0.109557964539386	-0.04539304297367829	-0.02465710493967834	0.1130750503112972	-40.20235025418373	17.85567379616676	-3.251001172743702	2.529760551569645	-417.38356646459	-19.98295061653382	-13.72457377913442	0.3563306805810191	0.3586879966548829	-1.000704847482	-0.3909758146234596	0.328860858636471	-0.08991280433661135	1.339425481871422	-0.4700627686176292	-0.4700627686176297	-0.1473383907390143	0.5370406679045779	-0.4320656686364504	0.4703155330895678	9.386139862105917e-08	5.099195615968027e-06	-1.201629892619006e-06	6.129183486825439e-07	4.971787524265432e-07	2.918411939998917e-06	5.434760403811037e-07
1.55	-0.3201839066062244	0.07410255383708915	0.8150734020047914	0.8806678859500769	-0.3630680661937102	-0.0683142398543877	-0.2945195450259851	0.7077559044582504	0.7077559044582302	-0.06727856752203443	-0.1635416489352011	0.2562693180558969	0.141423341719532	0.5080611812931948	0.2851988881699343	0.4430882204767667	-2.330044510542473	0.01299875378167852	-0.6040504520288624	0.6767660539001831	-2.234265840299535	-2.23426584029953	-0.3034589211013496	0.08630840654189734	-0.5860295285207592	-0.2022477474049402	-0.1137480708809831	0.07428614880060648	0.009622124978574016	-0.1069556779341136	-0.045276699126675	-0.02583393399298374	0.109484926949189	-40.08236366122526	18.14762021372715	-3.071220162598899	2.786749457351866	-414.7577599406052	-20.04264544173191	-14.6056460131569	0.3226398770402069	0.3287291397669097	-1.048136980628814	-0.2342781968369522	0.2963332415597618	-0.1990771939365063	1.245513284495552	-0.2985129979028022	-0.2985129979063477	-0.1140227323469474	0.3754039682305747	-0.384087758194175	0.4402587476591325	5.891755505082957e-08	5.460763685941879e-06	-8.251419796440479e-07	6.69021080143911e-07	4.34707595029189e-07	2.918529531876392e-06	5.276703629560849e-07
1.56	-0.3150884993283152	0.07697039831926224	0.8194509955632696	0.8573599442813884	-0.362922507032448	-0.07436183928862812	-0.2876903544198673	0.6854020219100834	0.6854020219100752	-0.07031806070696617	-0.1626571929218693	0.2503912535246242	0.1394241860512727	0.5109252255288907	0.2883148327434287	0.4323462079091507	-2.331202520292967	0.01612784397803361	-0.6054214351889952	0.688956527302225	-2.236181771138007	-2.236181771138025	-0.30437905595801	0.09057844427295461	-0.5894733711710913	-0.1975361751642421	-0.1094633155272562	0.07240963277322916	0.01055123691407681	-0.1043533913288414	-0.04516035527967261	-0.02701076304631579	0.1058948035870699	-39.96029169589274	18.43820556256779	-2.890084215607757	3.02970657742408	-412.0919901191328	-20.13608666318462	-15.48243541531831	0.2424129494196903	0.2935976733441281	-1.101204816719492	0.01872761189616298	0.3426206323569629	-0.02849500900077253	1.200777457671645	-0.07621515831256914	-0.07621515831256943	-0.06786367199131313	0.5315708398659548	-0.2983949566964159	0.5204264481309044	7.455655122467153e-08	5.614310913580271e-06	-1.192709823650853e-06	6.778912720781015e-07	5.153800756791292e-07	3.168247874824013e-06	5.782861586272906e-07
1.57	-0.3099672126586985	0.07986773516739651	0.8237187634011776	0.8340503277952217	-0.3627463093260577	-0.08041897844249453	-0.2807430787228298	0.6630385322156268	0.6630385322156193	-0.07336830553899057	-0.1617291970601066	0.2444817494301531	0.1374719587185427	0.5132284808678461	0.2910900973922529	0.4211346542727935	-2.330366378822863	0.01911974824341807	-0.605952207352616	0.700357953885904	-2.236185756939516	-2.236185756939501	-0.3056110611561267	0.09501828769360961	-0.5923207480428189	-0.1928732975041788	-0.105081587802633	0.07029581271278816	0.01141297883406635	-0.1021102886036482	-0.04478504618101251	-0.02829437128525907	0.1022285669900854	-39.78446232257212	18.78140047072075	-2.735210471474745	3.275201158051413	-409.752594373972	-20.21916584951929	-16.34459929437957	0.2087672599842751	0.2602447038039662	-1.141851557024358	0.1692570567392028	0.2786129506481529	-0.05646682483715591	1.088726525909796	0.08691355587503494	0.0869135558798098	-0.1413757390989987	0.3993062417557527	-0.2617207295937128	0.4441467880281799	1.534240970786023e-07	5.507832088299339e-06	-2.490347363884853e-06	6.277207896033219e-07	7.749821038881858e-07	3.729967156609314e-06	7.119287956687757e-07
1.58	-0.3048259963489103	0.0827909754306493	0.8278722715187358	0.8107597126521988	-0.3625399650516031	-0.0864796450189594	-0.2736860085065143	0.6406848834325498	0.6406848834325304	-0.07642897178214837	-0.1607569797343796	0.2385470092315276	0.1355673458350308	0.5149111535608113	0.293495515767129	0.4094942638392545	-2.327402251665905	0.02215715758955311	-0.6061269197080101	0.7109154311573301	-2.23421358886322	-2.234213588863173	-0.3064633381693224	0.09942273705787745	-0.5945205920018565	-0.1880132853207503	-0.1006998600779987	0.06818199265235454	0.01227472075379203	-0.09986718587843051	-0.04440973708234183	-0.02957797952418874	0.09856233039310897	-39.60981316822599	19.11937967513399	-2.573309631153072	3.499885667324176	-407.439102871274	-20.39926741931886	-17.18570244564405	0.1182964202217957	0.2196284185544433	-1.186972176155844	0.4443247492669828	0.3517216485071085	0.04271695264459165	1.031987595221109	0.3190156172482518	0.3190156172482504	0.008081964992939193	0.524492028588552	-0.1688883741585073	0.559853352803934	1.81810673704495e-07	5.596504846828536e-06	-3.105272675817772e-06	6.24191010317846e-07	8.867088549822281e-07	4.054690190885254e-06	7.861518143895399e-07
